# xmcd CD database file
#
# Track frame offsets:
#	150
#	13055
#	26227
#	41450
#	54690
#	69522
#	81932
#	95842
#	110622
#	123835
#	136382
#	148995
#	162650
#	174045
#	184977
#	196159
#	209445
#	222020
#	234750
#	249495
#	265087
#	278880
#	294047
#	305090
#	319212
#	330227
#
# Disc length: 4602 seconds
#
# Revision: 1
# Processed by: cddbd v1.5.1PL2 Copyright (c) Steve Scherf et al.
# Submitted via: CDex 1.51
#
DISCID=8111f81a
DTITLE=Stan Getz - Yesterdays
DYEAR=1900
DGENRE=Jazz
TTITLE0=Indian Summer
TTITLE1=There's a Small Hotel
TTITLE2=What's New?
TTITLE3=Too Marvellous for Words
TTITLE4=I've Got You Under My Skin
TTITLE5=My Old Flame
TTITLE6=Wrap Your Troubles in Dreams
TTITLE7=Lady in Red
TTITLE8=Gone With the Wind
TTITLE9=On the Alamo
TTITLE10=Yesterdays
TTITLE11=You Go to My Head
TTITLE12=Strike Up the Band
TTITLE13=Imagination
TTITLE14=Out of Nowhere
TTITLE15='S Wonderful
TTITLE16=It Might as Well Be Spring
TTITLE17=Song Is You
TTITLE18=Moonlight in Vermont - Johnny Smith
TTITLE19=Tenderly - Johnny Smith
TTITLE20=Way You Look Tonight
TTITLE21=Stars Fell on Alabama
TTITLE22=Lullaby of Birdland
TTITLE23=Autumn Leaves
TTITLE24=Fools Rush In
TTITLE25=These Foolish Things
EXTD=
EXTT0=
EXTT1=
EXTT2=
EXTT3=
EXTT4=
EXTT5=
EXTT6=
EXTT7=
EXTT8=
EXTT9=
EXTT10=
EXTT11=
EXTT12=
EXTT13=
EXTT14=
EXTT15=
EXTT16=
EXTT17=
EXTT18=
EXTT19=
EXTT20=
EXTT21=
EXTT22=
EXTT23=
EXTT24=
EXTT25=
PLAYORDER=
